<svg width="60" height="60" viewBox="0 0 60 60" fill="none" xmlns="http://www.w3.org/2000/svg">
<g clip-path="url(#clip0_2003_3281)">
<path d="M58.8192 54.9991L56.2738 52.4537C55.9102 52.09 55.3647 52.09 55.0011 52.4537C54.6374 52.8173 54.6374 53.3627 55.0011 53.7264L56.0011 54.7264H5.27379V3.99911L6.27379 4.99911C6.63743 5.36275 7.18288 5.36275 7.54652 4.99911C7.91016 4.63548 7.91016 4.09002 7.54652 3.72638L5.00107 1.18093C4.63743 0.817294 4.09197 0.817294 3.72834 1.18093L1.18288 3.72638C0.819247 4.09002 0.819247 4.63548 1.18288 4.99911C1.54652 5.36275 2.09197 5.36275 2.45561 4.99911L3.45561 3.99911V55.6355C3.45561 56.1809 3.81925 56.5446 4.3647 56.5446H55.9102L54.9102 57.5446C54.5465 57.9082 54.5465 58.4537 54.9102 58.8173C55.2738 59.1809 55.8192 59.1809 56.1829 58.8173L58.7283 56.2718C59.1829 55.9082 59.1829 55.3628 58.8192 54.9991Z" fill="#88FF2A"/>
<path d="M12.6372 23.0904L20.4554 30.7268L15.91 40.7268C13.8191 40.3631 12.1827 42.1813 12.5463 44.0904C12.8191 45.454 14.0009 46.454 15.3645 46.454C17.91 46.454 19.1827 43.3631 17.4554 41.545L21.7281 32.0904L23.5463 33.8177C23.1827 34.454 23.0009 35.1813 23.1827 35.8177C23.4554 37.1813 24.6372 38.1813 26.0009 38.1813C26.1827 38.1813 26.3645 38.1813 26.5463 38.0904C28.0918 37.8177 29.1827 36.2722 28.8191 34.7268C28.7281 34.3631 28.6372 33.9995 28.3645 33.6359L31.5463 28.7268L38.8191 31.8177V32.2722C39.0918 33.6359 40.2736 34.6359 41.6372 34.6359C43.4554 34.6359 44.8191 32.9995 44.4554 31.1813C44.3645 30.5449 44.0009 29.9086 43.4554 29.5449L43.91 27.8177L48.7281 34.9995C48.7281 34.9995 48.7281 34.9995 48.6372 35.0904C48.1827 35.7268 48.0009 36.5449 48.1827 37.2722C48.4554 38.7268 49.7281 39.6359 51.0009 39.6359C51.91 39.6359 52.8191 39.1813 53.3645 38.3631C54.8191 36.2722 53.0009 33.3631 50.4554 33.9086C50.3645 33.9086 50.2736 33.9995 50.0918 33.9995L44.91 25.454L47.2736 16.8177H47.6372C49.1827 16.5449 50.2736 14.9995 49.91 13.454C49.7281 12.7268 49.3645 11.9995 48.7281 11.6359C46.6372 10.1813 43.7281 12.0904 44.2736 14.5449C44.4554 15.2722 44.8191 15.9995 45.4554 16.3631L43.5463 23.5449L40.91 19.6359C41.2736 19.0904 41.3645 18.3631 41.2736 17.6359C41.0918 16.9086 40.7281 16.1813 40.0918 15.8177C39.4554 15.3631 38.6372 15.1813 37.91 15.3631C37.1827 15.5449 36.4554 15.9086 36.0918 16.5449C35.6372 17.1813 35.4554 17.9995 35.6372 18.7268C35.6372 18.9086 35.7281 19.0904 35.8191 19.2722L31.0918 26.454L26.91 24.7268C27.1827 22.6359 25.3645 21.0904 23.5463 21.454C21.0918 21.9086 20.3645 25.0904 22.3645 26.6359L21.3645 28.9086L13.91 21.6359C14.0918 21.0904 14.1827 20.5449 14.0918 19.9995C13.8191 18.454 12.2736 17.3631 10.7281 17.7268C10.0009 17.9086 9.2736 18.2722 8.90996 18.9086C8.45542 19.5449 8.2736 20.3631 8.45542 21.0904C8.63723 23.0904 10.91 24.1813 12.6372 23.0904ZM15.7281 44.6359C15.1827 44.7268 14.5463 44.3631 14.4554 43.8177C14.2736 42.9086 15.3645 42.1813 16.0918 42.7268C16.91 43.2722 16.6372 44.454 15.7281 44.6359ZM52.0009 35.7268C52.8191 36.2722 52.5463 37.5449 51.6372 37.7268C50.7281 37.9086 50.0009 36.8177 50.5463 36.0904C50.8191 35.5449 51.4554 35.3631 52.0009 35.7268ZM47.6372 12.9995C48.0918 13.3631 48.2736 13.9995 47.91 14.5449C47.3645 15.3631 46.0918 15.0904 45.91 14.1813C45.8191 13.1813 46.91 12.454 47.6372 12.9995ZM25.5463 36.1813C25.0918 35.8177 24.91 35.1813 25.2736 34.6359C25.6372 34.1813 26.2736 33.9995 26.8191 34.3631C27.91 35.1813 26.7281 36.9995 25.5463 36.1813ZM42.0918 32.8177C41.5463 32.9086 40.91 32.5449 40.8191 31.9995C40.6372 31.0904 41.7281 30.3631 42.4554 30.9086C43.3645 31.454 43.0918 32.6359 42.0918 32.8177ZM37.5463 17.6359C37.7281 17.3631 37.91 17.2722 38.2736 17.1813C39.6372 16.9086 40.0918 18.9995 38.6372 19.2722C38.3645 19.3631 38.0918 19.2722 37.8191 19.0904C37.3645 18.7268 37.1827 18.0904 37.5463 17.6359ZM37.0009 20.7268C37.8191 21.1813 38.7281 21.2722 39.5463 20.8177L42.8191 25.7268L42.0009 28.8177C41.8191 28.8177 41.5463 28.8177 41.3645 28.8177C40.6372 28.9995 39.91 29.3631 39.5463 29.9995L32.819 27.2722L37.0009 20.7268ZM23.91 23.3631C24.5463 23.2722 25.0918 23.6359 25.1827 24.1813C25.2736 24.7268 24.91 25.3631 24.3645 25.454C24.0918 25.5449 23.8191 25.454 23.5463 25.2722C23.2736 25.0904 23.1827 24.8177 23.0918 24.5449C22.91 23.9995 23.2736 23.454 23.91 23.3631ZM24.0009 27.2722C24.8191 27.2722 25.5463 26.9995 26.0918 26.454L30.0009 28.0904L27.0918 32.5449C26.6372 32.3631 26.0918 32.2722 25.5463 32.454C25.3645 32.454 25.1827 32.5449 25.0009 32.6359L22.6372 30.3631L24.0009 27.2722ZM11.0009 19.5449C11.5463 19.454 12.1827 19.8177 12.2736 20.3631C12.3645 20.9086 12.0009 21.5449 11.4554 21.6359C10.91 21.7268 10.2736 21.3631 10.1827 20.8177C10.0009 20.1813 10.3645 19.6359 11.0009 19.5449Z" fill="#88FF2A"/>
</g>
<defs>
<clipPath id="clip0_2003_3281">
<rect width="60" height="60" fill="white" transform="translate(0.000976562)"/>
</clipPath>
</defs>
</svg>
