<svg width="60" height="60" viewBox="0 0 60 60" fill="none" xmlns="http://www.w3.org/2000/svg">
<g clip-path="url(#clip0_2003_3290)">
<path d="M21.8133 5.01172H6.17719C5.83641 5.01172 5.56055 5.28746 5.56055 5.62836C5.56055 5.96914 5.83629 6.245 6.17719 6.245H21.8133C22.1541 6.245 22.4299 5.96926 22.4299 5.62836C22.4299 5.28746 22.1541 5.01172 21.8133 5.01172Z" fill="#88FF2A"/>
<path d="M37.0279 5.01172H36.4799C36.1391 5.01172 35.8633 5.28746 35.8633 5.62836C35.8633 5.96914 36.139 6.245 36.4799 6.245H37.0279C37.3687 6.245 37.6445 5.96926 37.6445 5.62836C37.6445 5.28746 37.3687 5.01172 37.0279 5.01172Z" fill="#88FF2A"/>
<path d="M41.1367 5.01172H40.5893C40.2485 5.01172 39.9727 5.28746 39.9727 5.62836C39.9727 5.96914 40.2484 6.245 40.5893 6.245H41.1367C41.4775 6.245 41.7533 5.96926 41.7533 5.62836C41.7533 5.28746 41.4776 5.01172 41.1367 5.01172Z" fill="#88FF2A"/>
<path d="M45.2476 5.01172H44.6996C44.3589 5.01172 44.083 5.28746 44.083 5.62836C44.083 5.96914 44.3587 6.245 44.6996 6.245H45.2476C45.5884 6.245 45.8643 5.96926 45.8643 5.62836C45.8641 5.28746 45.5884 5.01172 45.2476 5.01172Z" fill="#88FF2A"/>
<path d="M22.1261 28.1101C21.916 27.8421 21.5288 27.7934 21.2608 28.0048L18.5324 30.14C18.2173 30.3866 18.2168 30.8638 18.5324 31.1107L21.2608 33.2454C21.5288 33.456 21.9176 33.4077 22.1261 33.14C22.3362 32.872 22.2886 32.4843 22.0207 32.2747L19.9132 30.6254L22.0207 28.9756C22.2886 28.7658 22.3362 28.378 22.1261 28.1101Z" fill="#88FF2A"/>
<path d="M30.1695 28.0047C29.9009 27.7933 29.5137 27.8422 29.3042 28.1101C29.0941 28.3781 29.141 28.7659 29.4096 28.9754L31.5171 30.6253L29.4096 32.2746C29.1416 32.4841 29.094 32.8719 29.3042 33.1399C29.5152 33.4093 29.9032 33.4545 30.1695 33.2452L32.8973 31.1106C33.2124 30.864 33.2129 30.3868 32.8973 30.1399L30.1695 28.0047Z" fill="#88FF2A"/>
<path d="M28.3733 24.1295C28.0613 24.0019 27.6977 24.1517 27.5688 24.4666L22.7208 36.3176C22.5919 36.6331 22.7431 36.9931 23.058 37.1221C23.369 37.2494 23.7324 37.103 23.8625 36.7849L28.7104 24.934C28.8393 24.6184 28.6883 24.2583 28.3733 24.1295Z" fill="#88FF2A"/>
<path d="M35.5298 42.2289L34.7127 40.8199C35.1379 40.4429 35.5346 40.0467 35.9098 39.6228L37.3177 40.4442C38.1601 40.915 39.2361 40.6255 39.7106 39.7974L40.6554 38.1602C41.1347 37.3208 40.8451 36.2496 40.0105 35.7726L38.6014 34.9639C38.7827 34.4213 38.9296 33.8734 39.0422 33.3254H40.6577C41.6272 33.3254 42.4154 32.5372 42.4154 31.5677V29.6805C42.4154 28.7171 41.6272 27.9337 40.6577 27.9337H39.0434C38.9307 27.3815 38.7838 26.833 38.6032 26.2946L40.0092 25.4871C40.845 25.0095 41.1347 23.9383 40.6547 23.0983L39.7117 21.4532C39.2366 20.6223 38.1635 20.3314 37.3079 20.8101L35.9073 21.6273C35.5207 21.1944 35.1214 20.7957 34.7139 20.4368L35.5339 19.0217C36.0084 18.1757 35.7272 17.1255 34.886 16.6276L33.2398 15.6834C32.4124 15.2107 31.3441 15.4986 30.8516 16.3307L30.0459 17.7421C29.5118 17.5591 28.9632 17.4091 28.4051 17.2959V15.6809C28.4051 14.712 27.6217 13.9238 26.6583 13.9238H24.7718C23.8023 13.9238 23.0141 14.712 23.0141 15.6809V17.2965C22.4589 17.4109 21.9128 17.5603 21.3817 17.7427L20.5676 16.3295C20.0931 15.5021 19.0242 15.2107 18.1771 15.6846L16.5362 16.6318C15.7029 17.1255 15.4216 18.1752 15.8998 19.0296L16.7156 20.4362C16.2947 20.8047 15.8943 21.2027 15.5191 21.6267L14.1064 20.8072C13.2797 20.3345 12.2102 20.6217 11.7189 21.4527L10.7747 23.0989C10.5446 23.5018 10.485 23.9721 10.6061 24.4243C10.7277 24.8796 11.0173 25.2564 11.4196 25.4865L12.8268 26.2946C12.6461 26.833 12.4992 27.3815 12.3866 27.9337H10.7614C9.79805 27.9337 9.01465 28.7171 9.01465 29.6805V31.5677C9.01465 32.5372 9.79805 33.3254 10.7614 33.3254H12.3879C12.5005 33.8734 12.6475 34.4213 12.8286 34.9639L11.4207 35.772C10.5873 36.2485 10.2974 37.3241 10.7759 38.1625L11.7231 39.8034C12.2096 40.6265 13.2772 40.9143 14.11 40.4393L15.519 39.6215C15.8953 40.0467 16.2922 40.4435 16.7173 40.8198L15.8978 42.2325C15.4213 43.0667 15.7105 44.1443 16.5421 44.62L18.1757 45.5625C19.0346 46.0607 20.1021 45.7483 20.5656 44.9218L21.3827 43.5116C21.9198 43.6923 22.4654 43.8391 23.014 43.9517V45.5776C23.014 46.541 23.8022 47.3244 24.7717 47.3244H26.6583C27.6217 47.3244 28.4051 46.541 28.4051 45.5776V43.953C28.9567 43.8404 29.5052 43.6934 30.0448 43.5123L30.8535 44.9213C31.3525 45.7834 32.4356 46.043 33.2404 45.5639L34.8854 44.6214C35.7064 44.1521 36.017 43.0817 35.5298 42.2289ZM34.2731 43.5513L32.6196 44.4985C32.3752 44.6425 32.0651 44.5529 31.9218 44.3053L30.8578 42.4513C30.7072 42.1888 30.3893 42.075 30.1051 42.1815C29.3169 42.4795 28.5046 42.6976 27.6899 42.83C27.3912 42.8788 27.172 43.1364 27.172 43.4388V45.5776C27.172 45.8606 26.9414 46.0912 26.6584 46.0912H24.7718C24.4828 46.0912 24.2473 45.8606 24.2473 45.5776V43.4388C24.2473 43.1372 24.0287 42.8793 23.7306 42.8306C22.9195 42.6969 22.1102 42.4783 21.325 42.1815C21.0504 42.0767 20.7282 42.183 20.5734 42.4488L19.4944 44.3107C19.3522 44.5641 19.0416 44.6388 18.7935 44.4949L17.1563 43.5507C16.9097 43.4101 16.833 43.0808 16.9665 42.848L18.042 40.994C18.1931 40.7327 18.1335 40.4004 17.8998 40.2082C17.2465 39.6711 16.6678 39.0924 16.1306 38.439C15.938 38.2053 15.6061 38.1445 15.3448 38.2968L13.4944 39.3705C13.2499 39.5096 12.9307 39.4223 12.7875 39.1808L11.8451 37.5484C11.7067 37.3061 11.7894 36.9818 12.0335 36.8421L13.8875 35.7774C14.1489 35.6275 14.2638 35.3096 14.1579 35.0272C13.8605 34.2294 13.6418 33.4159 13.5088 32.6089C13.46 32.3109 13.2023 32.0922 12.9006 32.0922H10.7614C10.4736 32.0922 10.2478 31.8616 10.2478 31.5677V29.6805C10.2478 29.3975 10.4784 29.1669 10.7614 29.1669H12.9009C13.2032 29.1669 13.461 28.9477 13.5097 28.649C13.6421 27.8319 13.8608 27.0196 14.1577 26.2344C14.2649 25.9514 14.1504 25.6323 13.8879 25.4817L12.0327 24.4164C11.7913 24.2785 11.7057 23.9552 11.8448 23.7113L12.7842 22.0735C12.9312 21.8248 13.2509 21.737 13.4911 21.8761L15.3451 22.9515C15.6076 23.1027 15.9407 23.0424 16.1316 22.8088C16.6627 22.1602 17.2563 21.5701 17.8958 21.0547C18.1324 20.8638 18.1945 20.5284 18.0422 20.2653L16.9716 18.4191C16.8271 18.1614 16.9119 17.8429 17.1588 17.6966L18.7864 16.7572C19.0399 16.6145 19.3584 16.6988 19.4982 16.9439L20.5731 18.8088C20.7248 19.0738 21.0493 19.1864 21.3318 19.0749C22.0983 18.775 22.9052 18.554 23.7307 18.418C24.0288 18.3692 24.2474 18.1115 24.2474 17.8098V15.6812C24.2474 15.3922 24.4828 15.1573 24.7719 15.1573H26.6585C26.9463 15.1573 27.1721 15.3874 27.1721 15.6812V17.8098C27.1721 18.112 27.3913 18.3698 27.69 18.4186C28.5185 18.5534 29.3291 18.7745 30.0986 19.0755C30.3827 19.1839 30.7073 19.0725 30.8585 18.8063L31.9177 16.9498C32.064 16.7018 32.3814 16.6139 32.6276 16.7536L34.2654 17.6929C34.5183 17.8428 34.6032 18.1614 34.4629 18.4113L33.388 20.2659C33.2357 20.5284 33.2977 20.8638 33.5344 21.0547C34.1426 21.5455 34.7374 22.1374 35.3023 22.8136C35.4949 23.0436 35.8261 23.1038 36.0863 22.9502L37.9198 21.8807C38.1738 21.7374 38.5027 21.8241 38.6418 22.0655L39.5848 23.7106C39.7245 23.9551 39.6383 24.2784 39.3963 24.4169L37.5423 25.4816C37.2798 25.6321 37.1653 25.9513 37.2725 26.2343C37.5694 27.0194 37.7879 27.8318 37.9205 28.6489C37.9692 28.9476 38.2269 29.1668 38.5293 29.1668H40.6578C40.9518 29.1668 41.1824 29.3926 41.1824 29.6804V31.5676C41.1824 31.8615 40.9518 32.0921 40.6578 32.0921H38.5293C38.2276 32.0921 37.9698 32.3107 37.9211 32.6088C37.7879 33.4156 37.5694 34.2291 37.272 35.0271C37.166 35.3095 37.281 35.6274 37.5423 35.7773L39.3975 36.8425C39.6383 36.9805 39.7245 37.3038 39.5859 37.5459L38.6412 39.1831C38.5032 39.4245 38.1739 39.5101 37.9294 39.3734L36.0861 38.298C35.8248 38.1445 35.4918 38.2047 35.2991 38.4389C34.7632 39.0904 34.1845 39.6697 33.5293 40.208C33.2962 40.4001 33.2367 40.7325 33.3878 40.9939L34.4609 42.8449C34.5995 43.0852 34.5164 43.4114 34.2731 43.5513Z" fill="#88FF2A"/>
<path d="M58.9328 36.9596C58.8125 36.5006 58.2376 36.3422 57.9001 36.6797L54.2564 40.3227L50.7157 39.791L50.1804 36.2455L53.8228 32.6025C54.1582 32.2683 54.0042 31.6907 53.5429 31.5698C52.5702 31.3161 51.5704 31.265 50.6007 31.3996C50.6007 26.777 50.6007 11.5158 50.6007 4.29176C50.6007 2.14805 48.8569 0.404297 46.7139 0.404297H4.7107C2.56699 0.404297 0.823242 2.14816 0.823242 4.29176C0.824063 12.0669 0.826758 36.7215 0.828047 47.7442C0.828047 49.886 2.57062 51.6287 4.71316 51.6287H33.0534L32.1104 52.5717C30.4782 54.2039 30.5272 56.8054 32.1146 58.3928C33.7184 59.9965 36.3267 59.9957 37.9309 58.3928L44.6948 51.6288H46.7163C48.8582 51.6288 50.6009 49.8862 50.6009 47.7443V46.3404C52.9178 46.6547 55.2922 45.888 56.9668 44.2139C58.8551 42.3254 59.6084 39.5459 58.9328 36.9596ZM2.05641 4.29164C2.05641 2.82785 3.24691 1.63734 4.7107 1.63734H46.7139C48.1771 1.63734 49.3676 2.82785 49.3676 4.29164V9.62191H2.05641V4.29164ZM4.71305 50.3954C3.25102 50.3954 2.06121 49.2062 2.06121 47.7442V10.8587H49.3675V31.6898C48.2243 32.049 47.1601 32.6653 46.2893 33.5358C44.4859 35.3392 43.7175 37.9562 44.2413 40.4407L34.2865 50.3954H4.71305ZM49.3676 47.7442C49.3676 49.2062 48.1784 50.3954 46.7163 50.3954H45.9281L49.3676 46.956V47.7442ZM56.0947 43.3418C54.5141 44.9212 52.1879 45.5517 50.0244 44.9857C49.8101 44.9309 49.5866 44.9911 49.4325 45.1465C48.217 46.3619 38.3292 56.2504 37.0589 57.5207C35.9353 58.6425 34.1089 58.6437 32.9865 57.5207C31.8659 56.4 31.8462 54.5796 32.9823 53.4435L45.3559 41.0699C45.5107 40.9151 45.5721 40.69 45.5167 40.478C44.9513 38.3139 45.5811 35.9877 47.1612 34.4077C48.4946 33.0735 50.3261 32.4449 52.1054 32.5759L49.0881 35.5939C48.9496 35.7325 48.8851 35.9282 48.9141 36.122L49.5638 40.425C49.6046 40.6923 49.8149 40.9025 50.0822 40.9428L54.381 41.5883C54.5784 41.6154 54.7706 41.5528 54.9084 41.4143L57.9265 38.397C58.0602 40.2131 57.4032 42.0334 56.0947 43.3418Z" fill="#88FF2A"/>
<path d="M33.7715 53.6831C32.9303 54.5242 32.9303 55.8936 33.7715 56.7347C34.6101 57.5733 35.9767 57.5727 36.819 56.7305C37.6601 55.8905 37.6601 54.5285 36.819 53.6873C35.9778 52.8454 34.6102 52.8437 33.7715 53.6831ZM35.9471 55.8587C35.5858 56.2199 34.9996 56.219 34.6434 55.8629C34.2824 55.5019 34.2827 54.9156 34.6434 54.5549C35.0035 54.1948 35.5851 54.1973 35.9471 54.5592C36.3017 54.9138 36.3107 55.4949 35.9471 55.8587Z" fill="#88FF2A"/>
</g>
<defs>
<clipPath id="clip0_2003_3290">
<rect width="60" height="60" fill="white"/>
</clipPath>
</defs>
</svg>
