<svg width="36" height="36" viewBox="0 0 36 36" fill="none" xmlns="http://www.w3.org/2000/svg">
<path d="M7.3114 1.12402C6.38628 1.12402 5.625 1.8853 5.625 2.81045V20.8105C5.625 21.5612 6.7511 21.5612 6.7511 20.8105V6.75125H29.2478V20.8105C29.2308 21.5775 30.39 21.5775 30.3728 20.8105V2.81045C30.3728 1.8853 29.6126 1.12402 28.6875 1.12402H7.3114ZM7.3114 2.25014H28.6875C29.0089 2.25014 29.2478 2.48908 29.2478 2.81045V5.62513H6.7511V2.81045C6.7511 2.48908 6.99006 2.25014 7.3114 2.25014ZM8.4375 3.37406C8.12683 3.37406 7.875 3.62592 7.875 3.93657C7.875 4.24724 8.12683 4.49901 8.4375 4.49901C8.74815 4.49901 9 4.24724 9 3.93657C9 3.62592 8.74815 3.37406 8.4375 3.37406ZM10.6875 3.37406C10.3769 3.37406 10.125 3.62592 10.125 3.93657C10.125 4.24724 10.3769 4.49901 10.6875 4.49901C10.9982 4.49901 11.25 4.24724 11.25 3.93657C11.25 3.62592 10.9982 3.37406 10.6875 3.37406ZM12.9375 3.37406C12.6269 3.37406 12.375 3.62592 12.375 3.93657C12.375 4.24724 12.6269 4.49901 12.9375 4.49901C13.2482 4.49901 13.5 4.24724 13.5 3.93657C13.5 3.62592 13.2482 3.37406 12.9375 3.37406ZM20.7839 3.37516C20.0245 3.42682 20.0763 4.51878 20.8103 4.50018H27.5625C28.296 4.48317 28.296 3.39142 27.5625 3.37516H20.7839ZM2.8147 4.50018C1.88956 4.50018 1.125 5.26035 1.125 6.1855V26.4365C1.125 27.3617 1.88956 28.1229 2.8147 28.1229H33.1886C34.1137 28.1229 34.875 27.3617 34.875 26.4365V6.18543C34.875 5.26029 34.1137 4.50011 33.1886 4.50011H32.0636C31.2968 4.48311 31.2968 5.64214 32.0636 5.62513H33.1886C33.51 5.62513 33.7489 5.86407 33.7489 6.18543V22.5001H2.25V6.18543C2.25 5.86407 2.49335 5.62513 2.8147 5.62513H3.9353C4.70212 5.64214 4.70212 4.48311 3.9353 4.50011L2.8147 4.50018ZM19.6941 8.99026C19.4468 8.98858 19.2275 9.1487 19.1536 9.38473L15.7775 19.5086C15.5394 20.2205 16.6073 20.5775 16.8453 19.8656L20.2214 9.73845C20.3488 9.37421 20.0799 8.99281 19.6941 8.99026ZM22.1396 12.2422L24.9961 14.6251L22.1396 17.0048C21.5293 17.4826 22.2829 18.3842 22.8614 17.8684L26.2332 15.0569C26.5024 14.832 26.5024 14.4183 26.2332 14.1934L22.8614 11.3776C22.7607 11.2913 22.6326 11.2435 22.4714 11.2437C21.9397 11.2902 21.7469 11.9244 22.1396 12.2422ZM13.4857 11.2447C13.359 11.249 13.2375 11.2957 13.1407 11.3776L9.76575 14.1934C9.49651 14.4183 9.49651 14.832 9.76575 15.0568L13.1407 17.8683C13.7212 18.4089 14.4964 17.4772 13.8593 17.0047L11.0028 14.6251L13.8593 12.2422C14.2749 11.9019 14.0226 11.2283 13.4857 11.2447ZM2.25 23.6263H33.7489V26.4365C33.7489 26.7579 33.51 26.9968 33.1886 26.9968H2.8147C2.49335 26.9968 2.25 26.7579 2.25 26.4365V23.6263ZM19.1558 24.7502L16.8475 24.7513C16.1305 24.8369 16.1787 25.8527 16.8739 25.8719H19.125C19.8975 25.9401 19.9618 24.7657 19.1558 24.7502ZM14.8447 29.204C14.6189 29.1997 14.4122 29.3298 14.3196 29.5358C14.0487 30.1168 13.5634 30.7952 12.7255 31.4979H11.8125C10.8874 31.4979 10.1272 32.2636 10.1272 33.1888V34.3094C10.1261 34.62 10.3769 34.8728 10.6875 34.874H25.3114C25.6238 34.8751 25.8773 34.6217 25.8761 34.3094V33.1888C25.8761 32.2636 25.1115 31.4979 24.1864 31.4979H23.2745C22.4367 30.7952 21.9513 30.1167 21.6804 29.5358C21.5852 29.3244 21.3702 29.1932 21.1388 29.2051C20.7369 29.2263 20.486 29.6492 20.6609 30.0115C20.8802 30.4818 21.215 30.9863 21.6661 31.4979H14.3339C14.785 30.9863 15.1198 30.4818 15.3391 30.0115C15.5177 29.6426 15.2545 29.2127 14.8447 29.204ZM11.8125 32.6241H24.1864C24.5077 32.6241 24.7511 32.8674 24.7511 33.1888V33.7491H11.2522V33.1888C11.2522 32.8674 11.4911 32.6241 11.8125 32.6241Z" fill="#88FF2A"/>
</svg>
