<svg width="36" height="36" viewBox="0 0 36 36" fill="none" xmlns="http://www.w3.org/2000/svg">
<path fill-rule="evenodd" clip-rule="evenodd" d="M3.24024 4.62575C7.25678 4.30725 10.7554 2.54558 13.4006 0.6565C13.4844 0.596641 13.5847 0.564453 13.6877 0.564453H22.3113C22.4143 0.564453 22.5147 0.596641 22.5985 0.6565C25.2437 2.54558 28.7423 4.30725 32.7588 4.62575C33.0158 4.64608 33.2139 4.86052 33.2139 5.11831V17.9798C33.2139 22.257 31.058 26.1991 28.0761 29.2829C25.1164 32.3436 21.3485 34.5543 18.1275 35.4182C18.0437 35.4407 17.9553 35.4407 17.8715 35.4182C14.6515 34.5543 10.8837 32.3436 7.9237 29.2829C4.94156 26.1992 2.78516 22.257 2.78516 17.9798V5.11831C2.78516 4.86052 2.9833 4.64608 3.24024 4.62575ZM3.77339 5.56881V17.9798C3.77339 22.002 5.82977 25.6961 8.6341 28.5959C11.4214 31.4781 14.9535 33.5799 17.9995 34.4287C21.0465 33.5799 24.5786 31.4781 27.3657 28.5959C30.1698 25.6961 32.2257 22.002 32.2257 17.9798V5.56881C28.2698 5.15078 24.81 3.42624 22.1539 1.55269H13.8453C11.189 3.42624 7.7293 5.15078 3.77339 5.56881ZM14.1919 3.13203C14.1972 3.11777 14.2003 3.11001 14.2003 3.10994C14.2553 3.07605 14.3142 3.05424 14.3742 3.04365C14.3928 3.04012 14.4134 3.03779 14.4363 3.03681C14.4448 3.03638 14.4534 3.03624 14.4621 3.03624C14.4747 3.03624 14.5435 3.03631 14.6582 3.03631H21.5411C21.6393 3.03631 21.7353 3.06554 21.8168 3.12038C24.4074 4.86257 27.2877 6.17735 30.3456 6.78059C30.6052 6.83177 30.743 6.98036 30.744 7.26857V7.56532V17.9798C30.744 20.6223 29.6731 23.2367 27.9985 25.5423C25.5212 28.9532 21.7237 31.6872 18.1508 32.8361C18.0524 32.8677 17.9466 32.8677 17.8483 32.8361C14.2753 31.6871 10.4779 28.9524 8.00057 25.5414C6.326 23.2358 5.25504 20.6215 5.25504 17.9798V7.26532C5.25504 7.02928 5.42191 6.82626 5.65351 6.78059C8.71146 6.17735 11.5918 4.8625 14.1843 3.12031L14.1919 3.13203ZM29.7558 7.66747C26.7666 7.01728 23.9448 5.72269 21.3911 4.02455C20.4802 4.02455 15.695 4.02455 14.6582 4.02455H14.6098C12.0545 5.72276 9.23247 7.01728 6.24327 7.66747V17.9798C6.24327 20.4211 7.25261 22.8299 8.80019 24.9607C11.1185 28.1528 14.6501 30.7265 17.9995 31.8457C21.3489 30.7265 24.8806 28.1535 27.1989 24.9615C28.7465 22.8309 29.7558 20.4218 29.7558 17.9798C29.7558 17.9798 29.7558 9.6157 29.7558 7.66747ZM15.5787 8.93311C18.4711 8.09932 21.7183 8.78947 24.0396 11.0268C26.8448 13.7306 27.4415 17.8692 25.788 21.1817C25.6662 21.4257 25.3692 21.525 25.1252 21.4032C24.8813 21.2814 24.782 20.9844 24.9038 20.7404C26.3695 17.8039 25.8405 14.1352 23.3538 11.7383C21.3305 9.78815 18.5135 9.16422 15.9822 9.84645L16.2913 9.88803C16.5616 9.92438 16.7515 10.1733 16.7151 10.4436C16.6788 10.7139 16.4298 10.9038 16.1595 10.8674L13.998 10.5766C13.8231 10.5531 13.674 10.438 13.6069 10.2747C13.5398 10.1114 13.5649 9.92474 13.6728 9.78504L15.0054 8.05852C15.1721 7.84267 15.4826 7.80264 15.6984 7.9693C15.9144 8.13596 15.9543 8.44648 15.7877 8.66234L15.5787 8.93311ZM20.032 24.7362L19.7071 24.6914C19.437 24.6542 19.2479 24.4046 19.2852 24.1344C19.3224 23.8643 19.572 23.6752 19.8421 23.7124L22.0026 24.0103C22.1775 24.0344 22.3262 24.15 22.3928 24.3134C22.4594 24.477 22.4336 24.6636 22.3253 24.803L20.9871 26.5251C20.8197 26.7404 20.5091 26.7794 20.2937 26.6121C20.0784 26.4447 20.0394 26.1341 20.2068 25.9187L20.4105 25.6564C17.5206 26.4858 14.2781 25.7947 11.9595 23.5599C9.15426 20.8561 8.55758 16.7175 10.211 13.4049C10.3329 13.1609 10.6298 13.0617 10.8739 13.1835C11.1178 13.3053 11.2171 13.6023 11.0953 13.8463C9.62953 16.7828 10.1585 20.4515 12.6453 22.8484C14.6726 24.8024 17.4968 25.4249 20.032 24.7362ZM17.0244 17.4122L20.458 14.6446C21.0707 14.1507 21.9691 14.2472 22.463 14.86C22.9569 15.4728 22.8605 16.3712 22.2477 16.8651L17.6069 20.6056C17.2964 20.8559 16.8952 20.9647 16.5007 20.9056C16.1062 20.8464 15.7545 20.6248 15.531 20.2944L13.8413 17.797C13.4003 17.1452 13.5715 16.2579 14.2233 15.8169C14.8752 15.3759 15.7625 15.547 16.2034 16.1989L17.0244 17.4122ZM16.9408 18.6175C16.9098 18.6175 16.9121 18.6168 16.9121 18.6168C16.7853 18.6103 16.6083 18.5609 16.4755 18.3645L15.3849 16.7527C15.2496 16.5525 14.9772 16.5 14.7771 16.6354C14.577 16.7708 14.5245 17.0431 14.6599 17.2433L16.3495 19.7407C16.4181 19.8421 16.5261 19.9101 16.6472 19.9283C16.7683 19.9464 16.8914 19.913 16.9867 19.8362L21.6275 16.0956C21.8156 15.9441 21.8453 15.6682 21.6936 15.4802C21.542 15.2921 21.2662 15.2624 21.0781 15.414L17.2262 18.5187C17.1807 18.5529 17.1298 18.5813 17.073 18.6026C17.073 18.6026 17.0196 18.6178 16.9408 18.6175Z" fill="#88FF2A"/>
</svg>
