<svg width="39" height="40" viewBox="0 0 39 40" fill="none" xmlns="http://www.w3.org/2000/svg">
<path d="M21.1873 1.21867C21.3312 0.618342 22.2146 0.722222 22.2154 1.33956L22.2208 6.51837C22.2279 13.2056 26.8163 19.0169 33.3195 20.5749L38.3558 21.7815C38.9562 21.9254 38.8523 22.8088 38.2349 22.8096L33.0561 22.815C26.3689 22.8221 20.5576 27.4105 18.9996 33.9137L17.793 38.95C17.6491 39.5504 16.7656 39.4465 16.7649 38.8291L16.7595 33.6503C16.7524 26.9631 12.164 21.1518 5.66077 19.5938L0.624474 18.3872C0.0241426 18.2433 0.128023 17.3598 0.745357 17.3591L5.92417 17.3537C12.6114 17.3466 18.4227 12.7582 19.9807 6.25497L21.1873 1.21867Z" fill="white"/>
</svg>
