<svg width="38" height="38" viewBox="0 0 38 38" fill="none" xmlns="http://www.w3.org/2000/svg">
<path d="M18.493 0.450417C18.5643 -0.150139 19.4357 -0.150139 19.507 0.450417L20.1048 5.48854C20.8767 11.9941 26.0059 17.1233 32.5114 17.8952L37.5495 18.493C38.1502 18.5643 38.1502 19.4357 37.5495 19.507L32.5114 20.1048C26.0059 20.8767 20.8767 26.0059 20.1048 32.5114L19.507 37.5495C19.4357 38.1502 18.5643 38.1502 18.493 37.5495L17.8952 32.5114C17.1233 26.0059 11.9941 20.8767 5.48854 20.1048L0.450417 19.507C-0.150139 19.4357 -0.150139 18.5643 0.450417 18.493L5.48854 17.8952C11.9941 17.1233 17.1233 11.9941 17.8952 5.48854L18.493 0.450417Z" fill="black"/>
</svg>
