<svg width="80" height="80" viewBox="0 0 80 80" fill="none" xmlns="http://www.w3.org/2000/svg">
<path d="M27.5 28.75H18.75V20C18.75 19.6685 18.6183 19.3505 18.3839 19.1161C18.1495 18.8817 17.8315 18.75 17.5 18.75C15.275 18.75 13.0999 19.4098 11.2498 20.646C9.39979 21.8821 7.95785 23.6391 7.10636 25.6948C6.25487 27.7505 6.03209 30.0125 6.46617 32.1948C6.90025 34.3771 7.97171 36.3816 9.54505 37.955C11.1184 39.5283 13.123 40.5998 15.3052 41.0338C17.4875 41.4679 19.7495 41.2451 21.8052 40.3936C23.8609 39.5422 25.6179 38.1002 26.854 36.2502C28.0902 34.4001 28.75 32.225 28.75 30C28.75 29.6685 28.6183 29.3505 28.3839 29.1161C28.1495 28.8817 27.8315 28.75 27.5 28.75ZM16.25 21.3387V29.4825L10.5 35.2325C9.58731 34.0194 9.00671 32.5892 8.81547 31.0832C8.62424 29.5771 8.829 28.0472 9.40953 26.6445C9.99007 25.2417 10.9263 24.0146 12.1259 23.0842C13.3255 22.1537 14.7469 21.5521 16.25 21.3387ZM17.5 38.75C15.6129 38.7499 13.7771 38.1356 12.27 37L18.02 31.25H26.1638C25.8604 33.3319 24.8182 35.2352 23.2275 36.6122C21.6368 37.9892 19.6039 38.748 17.5 38.75Z" fill="#88FF2A"/>
<path d="M22.5 26.25H32.5C32.8315 26.25 33.1495 26.1183 33.3839 25.8839C33.6183 25.6495 33.75 25.3315 33.75 25C33.7464 22.0174 32.5599 19.1581 30.4509 17.0491C28.3419 14.9401 25.4826 13.7536 22.5 13.75C22.1685 13.75 21.8505 13.8817 21.6161 14.1161C21.3817 14.3505 21.25 14.6685 21.25 15V25C21.25 25.3315 21.3817 25.6495 21.6161 25.8839C21.8505 26.1183 22.1685 26.25 22.5 26.25ZM23.75 16.3388C25.6184 16.6119 27.3489 17.4807 28.6841 18.8159C30.0193 20.1511 30.8881 21.8816 31.1613 23.75H23.75V16.3388Z" fill="#88FF2A"/>
<path d="M48.75 32.5C45.5361 32.5 42.3943 33.453 39.722 35.2386C37.0497 37.0242 34.9669 39.5621 33.737 42.5314C32.507 45.5007 32.1852 48.768 32.8122 51.9202C33.4393 55.0724 34.9869 57.9679 37.2595 60.2405C39.5321 62.5131 42.4276 64.0608 45.5798 64.6878C48.732 65.3148 51.9993 64.993 54.9686 63.763C57.9379 62.5331 60.4758 60.4503 62.2614 57.778C64.047 55.1057 65 51.9639 65 48.75C64.995 44.4418 63.2814 40.3114 60.235 37.265C57.1886 34.2186 53.0583 32.505 48.75 32.5ZM42.5 43.75V36.5175C43.2991 36.1081 44.1364 35.7782 45 35.5325V43.75H42.5ZM57.5 46.25V48.75H40V46.25H57.5ZM52.5 43.75V35.5325C53.3636 35.7782 54.2009 36.1081 55 36.5175V43.75H52.5ZM50 35.0638V43.75H47.5V35.0638C47.9125 35.0263 48.3275 35 48.75 35C49.1725 35 49.5875 35.0263 50 35.0638ZM40 38.1512V43.75H38.75C38.4185 43.75 38.1005 43.8817 37.8661 44.1161C37.6317 44.3505 37.5 44.6685 37.5 45V50C37.5 50.3315 37.6317 50.6495 37.8661 50.8839C38.1005 51.1183 38.4185 51.25 38.75 51.25H58.75C59.0815 51.25 59.3995 51.1183 59.6339 50.8839C59.8683 50.6495 60 50.3315 60 50V45C60 44.6685 59.8683 44.3505 59.6339 44.1161C59.3995 43.8817 59.0815 43.75 58.75 43.75H57.5V38.1512C59.7378 39.9889 61.3351 42.4891 62.0619 45.2921C62.7888 48.0951 62.6078 51.0564 61.545 53.75H35.955C34.8922 51.0564 34.7112 48.0951 35.4381 45.2921C36.1649 42.4891 37.7622 39.9889 40 38.1512ZM48.75 62.5C46.4631 62.4976 44.2128 61.9248 42.203 60.8335C40.1933 59.7422 38.4874 58.1668 37.24 56.25H60.26C59.0126 58.1668 57.3067 59.7422 55.297 60.8335C53.2872 61.9248 51.037 62.4976 48.75 62.5Z" fill="#88FF2A"/>
<path d="M77.0888 69.0713L71.6813 63.6637C71.9312 63.193 72.0242 62.6547 71.9466 62.1274C71.869 61.6 71.625 61.1113 71.25 60.7325L68.0688 57.5513C69.6009 54.2205 70.239 50.5481 69.9201 46.8958C69.6012 43.2435 68.3363 39.7372 66.25 36.7225V5C66.25 4.00544 65.8549 3.05161 65.1516 2.34835C64.4484 1.64509 63.4946 1.25 62.5 1.25H5C4.00544 1.25 3.05161 1.64509 2.34835 2.34835C1.64509 3.05161 1.25 4.00544 1.25 5V52.5C1.25 53.4946 1.64509 54.4484 2.34835 55.1516C3.05161 55.8549 4.00544 56.25 5 56.25H28.8925C29.9118 58.9744 31.4818 61.4595 33.5043 63.5502C35.5268 65.6409 37.9586 67.2923 40.6477 68.4013C43.3369 69.5103 46.2258 70.0531 49.1341 69.9959C52.0424 69.9387 54.9078 69.2827 57.5513 68.0688L60.7325 71.25C61.1083 71.6299 61.5974 71.8774 62.1261 71.9552C62.6548 72.0329 63.1944 71.9368 63.6637 71.6813L69.0713 77.0888C70.1344 78.1519 71.5764 78.7492 73.08 78.7492C74.5836 78.7492 76.0256 78.1519 77.0888 77.0888C78.1519 76.0256 78.7492 74.5836 78.7492 73.08C78.7492 71.5764 78.1519 70.1344 77.0888 69.0713ZM5 3.75H62.5C62.8315 3.75 63.1495 3.8817 63.3839 4.11612C63.6183 4.35054 63.75 4.66848 63.75 5V8.75H3.75V5C3.75 4.66848 3.8817 4.35054 4.11612 4.11612C4.35054 3.8817 4.66848 3.75 5 3.75ZM5 53.75C4.66848 53.75 4.35054 53.6183 4.11612 53.3839C3.8817 53.1495 3.75 52.8315 3.75 52.5V11.25H63.75V33.7138C61.941 31.9161 59.8241 30.4575 57.5 29.4075V15C57.5 14.6685 57.3683 14.3505 57.1339 14.1161C56.8995 13.8817 56.5815 13.75 56.25 13.75H51.25C50.9185 13.75 50.6005 13.8817 50.3661 14.1161C50.1317 14.3505 50 14.6685 50 15V27.5638C49.5838 27.5388 49.1725 27.5 48.75 27.5C48.3275 27.5 47.9162 27.5388 47.5 27.5638V22.5C47.5 22.1685 47.3683 21.8505 47.1339 21.6161C46.8995 21.3817 46.5815 21.25 46.25 21.25H41.25C40.9185 21.25 40.6005 21.3817 40.3661 21.6161C40.1317 21.8505 40 22.1685 40 22.5V29.4075C35.4793 31.4272 31.8128 34.9722 29.642 39.4223C27.4711 43.8723 26.9341 48.944 28.125 53.75H5ZM55 28.4412C54.1795 28.1938 53.3446 27.9968 52.5 27.8512V16.25H55V28.4412ZM45 27.8512C44.1554 27.9968 43.3205 28.1938 42.5 28.4412V23.75H45V27.8512ZM30 48.75C30 45.0416 31.0997 41.4165 33.1599 38.3331C35.2202 35.2496 38.1486 32.8464 41.5747 31.4273C45.0008 30.0081 48.7708 29.6368 52.4079 30.3603C56.0451 31.0837 59.386 32.8695 62.0083 35.4917C64.6305 38.114 66.4163 41.4549 67.1397 45.0921C67.8632 48.7292 67.4919 52.4992 66.0727 55.9253C64.6536 59.3514 62.2504 62.2798 59.1669 64.3401C56.0835 66.4003 52.4584 67.5 48.75 67.5C43.7789 67.4944 39.013 65.5171 35.498 62.002C31.9829 58.4869 30.0056 53.7211 30 48.75ZM59.8525 66.835C62.6931 65.0844 65.0844 62.6931 66.835 59.8525L69.4825 62.5L62.5 69.4825L59.8525 66.835ZM73.08 76.25C72.6636 76.251 72.2511 76.1695 71.8664 76.01C71.4817 75.8506 71.1324 75.6165 70.8388 75.3213L65.5175 70L70 65.5175L75.3213 70.8388C75.7645 71.2821 76.0663 71.8469 76.1886 72.4617C76.3108 73.0766 76.2481 73.7139 76.0082 74.293C75.7683 74.8722 75.3621 75.3672 74.8409 75.7156C74.3197 76.0639 73.7069 76.2499 73.08 76.25Z" fill="#88FF2A"/>
<path d="M22.5 43.75H7.5C7.16848 43.75 6.85054 43.8817 6.61612 44.1161C6.3817 44.3505 6.25 44.6685 6.25 45V50C6.25 50.3315 6.3817 50.6495 6.61612 50.8839C6.85054 51.1183 7.16848 51.25 7.5 51.25H22.5C22.8315 51.25 23.1495 51.1183 23.3839 50.8839C23.6183 50.6495 23.75 50.3315 23.75 50V45C23.75 44.6685 23.6183 44.3505 23.3839 44.1161C23.1495 43.8817 22.8315 43.75 22.5 43.75ZM21.25 48.75H8.75V46.25H21.25V48.75Z" fill="#88FF2A"/>
</svg>
