<svg width="80" height="80" viewBox="0 0 80 80" fill="none" xmlns="http://www.w3.org/2000/svg">
<path d="M69.8495 11.017H66.1357C65.8805 10.3581 65.2418 9.88875 64.4938 9.88875C63.7787 9.88875 63.4966 9.34188 63.4271 9.17422C63.3576 9.00656 63.1704 8.42031 63.676 7.91484C64.0087 7.58219 64.192 7.13969 64.192 6.66906C64.192 6.19859 64.0088 5.75625 63.676 5.42328L62.2382 3.98547C61.5513 3.29875 60.4338 3.29859 59.7468 3.98547C59.2412 4.49125 58.6551 4.30406 58.4874 4.23453C58.3198 4.16516 57.7729 3.88297 57.7729 3.16781C57.7729 2.19656 56.9826 1.40625 56.0113 1.40625H53.978C53.0068 1.40625 52.2166 2.19656 52.2166 3.16781C52.2166 3.88297 51.6698 4.16516 51.5021 4.23453C51.3346 4.30391 50.7484 4.49109 50.2424 3.98516C49.5555 3.29875 48.438 3.29875 47.7513 3.98531L46.3134 5.42328C45.9809 5.75609 45.7976 6.19844 45.7976 6.66891C45.7976 7.13953 45.9809 7.58187 46.3135 7.91453C46.8191 8.42016 46.632 9.00641 46.5626 9.17406C46.4932 9.34172 46.211 9.88859 45.4959 9.88859C44.7479 9.88859 44.1091 10.3578 43.854 11.0169H11.422C8.17695 11.0169 5.53711 13.6569 5.53711 16.9017V55.2113C5.53711 58.4563 8.17711 61.0961 11.422 61.0961H30.2574C30.202 64.7267 29.3291 68.3805 28.3496 70.5734H24.4004C22.1893 70.5734 20.3902 72.3723 20.3902 74.5836C20.3902 76.7948 22.1893 78.5939 24.4004 78.5939H55.5991C57.8104 78.5939 59.6093 76.795 59.6093 74.5837C59.6093 72.3725 57.8104 70.5736 55.5991 70.5736H51.6388C50.613 68.3425 49.6838 64.6763 49.5952 61.0963H68.5777C71.8227 61.0963 74.4627 58.4562 74.4627 55.2114V15.6309C74.4626 13.0867 72.393 11.017 69.8495 11.017ZM45.9218 12.0506C47.1135 11.9052 48.1113 11.1517 48.5835 10.0114C49.0559 8.87125 48.8832 7.63297 48.1434 6.68734L49.0152 5.81547C49.9607 6.55531 51.199 6.72797 52.3393 6.25578C53.4795 5.78344 54.2332 4.78578 54.3785 3.59391H55.6113C55.7568 4.78562 56.5104 5.78344 57.6505 6.25578C58.7907 6.72812 60.0291 6.55531 60.9746 5.81547L61.8465 6.68734C61.1066 7.63297 60.934 8.87125 61.4063 10.0114C61.8785 11.1516 62.8762 11.9052 64.068 12.0506V13.2834C62.8763 13.4289 61.8787 14.1823 61.4063 15.3227C60.934 16.4628 61.1066 17.7013 61.8465 18.6467L60.9746 19.5186C60.0291 18.7787 58.7909 18.6062 57.6505 19.0783C56.5104 19.5506 55.7568 20.5483 55.6113 21.74H54.3787C54.2334 20.547 53.4801 19.5489 52.3401 19.0767C51.1999 18.6044 49.9612 18.7777 49.0152 19.5186L48.1434 18.6467C48.8832 17.7011 49.0559 16.4628 48.5835 15.3227C48.1113 14.1825 47.1135 13.4289 45.9218 13.2834V12.0506ZM11.422 13.2045H43.7343V13.6836C43.7343 14.6548 44.5246 15.4452 45.4959 15.4452C46.211 15.4452 46.493 15.992 46.5626 16.1597C46.6321 16.3273 46.8193 16.9136 46.3135 17.4192C45.6266 18.1061 45.6266 19.2236 46.3135 19.9105L47.7513 21.3483C48.4382 22.0352 49.5555 22.0352 50.2426 21.3483C50.7496 20.8414 51.3354 21.0283 51.5027 21.0977C51.6702 21.167 52.2166 21.4491 52.2166 22.1659C52.2166 23.1372 53.0068 23.9275 53.978 23.9275H56.0113C56.9826 23.9275 57.7729 23.1372 57.7729 22.1659C57.7729 21.4508 58.3198 21.1687 58.4874 21.0992C58.6551 21.0298 59.2413 20.8425 59.7471 21.3484C60.4341 22.0353 61.5516 22.0352 62.2384 21.3483L63.6762 19.9105C64.363 19.2236 64.363 18.1061 63.6762 17.4192C63.1705 16.9136 63.3577 16.3273 63.4271 16.1597C63.4965 15.992 63.7787 15.4452 64.4938 15.4452C65.4651 15.4452 66.2554 14.6548 66.2554 13.6836V13.2045H69.8493C71.1868 13.2045 72.2749 14.293 72.2749 15.6309V49.3788H7.72445V16.9019C7.72445 14.8631 9.3832 13.2045 11.422 13.2045ZM57.4218 74.5837C57.4218 75.5888 56.6041 76.4064 55.5991 76.4064H24.4004C23.3954 76.4064 22.5777 75.5888 22.5777 74.5837C22.5777 73.5788 23.3954 72.7611 24.4004 72.7611H55.5991C56.6041 72.7611 57.4218 73.5788 57.4218 74.5837ZM49.2588 70.5736H30.7179C31.7402 67.8969 32.3955 64.3377 32.4446 61.0963H47.4076C47.4837 64.2995 48.186 67.8609 49.2588 70.5736ZM68.5776 58.9088H11.422C9.3832 58.9088 7.72461 57.2502 7.72461 55.2114V51.5661H72.2751V55.2114C72.2751 57.2502 70.6163 58.9088 68.5776 58.9088ZM43.7276 55.2375C43.7276 55.8416 43.2379 56.3313 42.6338 56.3313H37.3657C36.7616 56.3313 36.272 55.8416 36.272 55.2375C36.272 54.6334 36.7616 54.1438 37.3657 54.1438H42.6338C43.2379 54.1438 43.7276 54.6333 43.7276 55.2375ZM54.9949 18.6456C58.2916 18.6456 60.9737 15.9636 60.9737 12.667C60.9737 9.37031 58.2916 6.68828 54.9949 6.68828C51.6982 6.68828 49.0163 9.37031 49.0163 12.667C49.0163 15.9636 51.6982 18.6456 54.9949 18.6456ZM54.9949 8.87578C57.0854 8.87578 58.7862 10.5766 58.7862 12.667C58.7862 14.7575 57.0854 16.4581 54.9949 16.4581C52.9045 16.4581 51.2038 14.7575 51.2038 12.667C51.2038 10.5766 52.9045 8.87578 54.9949 8.87578ZM15.0707 34.635C15.8688 34.635 16.5282 35.0764 16.8345 35.8158C17.1407 36.5552 16.9866 37.3336 16.4224 37.898C16.0474 38.273 15.8407 38.7716 15.8407 39.3022C15.8407 39.8327 16.0473 40.3313 16.4223 40.7063L18.3426 42.6266C19.1168 43.4008 20.3766 43.4008 21.1509 42.6266C21.7165 42.0611 22.4952 41.9062 23.2338 42.2123C23.9727 42.5183 24.4138 43.1784 24.4138 43.9781C24.4138 45.073 25.3046 45.9637 26.3995 45.9637H29.1149C30.2098 45.9637 31.1005 45.073 31.1005 43.9781C31.1005 43.18 31.542 42.5206 32.2813 42.2144C33.0207 41.9083 33.7991 42.0622 34.3634 42.6264C34.7384 43.0014 35.237 43.2081 35.7676 43.2081C36.298 43.2081 36.7966 43.0016 37.1716 42.6266L39.0918 40.7063C39.4668 40.3313 39.6735 39.8327 39.6735 39.3022C39.6735 38.7716 39.467 38.273 39.092 37.8981C38.5276 37.3338 38.3735 36.5553 38.6798 35.8159C38.986 35.0766 39.6454 34.6352 40.4435 34.6352C41.5384 34.6352 42.4291 33.7444 42.4291 32.6495V29.9341C42.4291 28.8392 41.5384 27.9484 40.4435 27.9484C39.6454 27.9484 38.986 27.507 38.6798 26.7677C38.3735 26.0283 38.5276 25.2498 39.092 24.6855C39.8662 23.9112 39.8662 22.6516 39.092 21.8772L37.1716 19.9569C36.3974 19.1828 35.1376 19.1828 34.3635 19.9569C33.7991 20.5211 33.021 20.6753 32.2813 20.3691C31.5421 20.0628 31.1005 19.4034 31.1005 18.6055C31.1005 17.5106 30.2098 16.6198 29.1149 16.6198H26.3995C25.3046 16.6198 24.4138 17.5106 24.4138 18.6055C24.4138 19.4034 23.9724 20.0628 23.233 20.3691C22.4937 20.6753 21.7152 20.5214 21.1507 19.9569C20.3765 19.183 19.1168 19.1828 18.3426 19.9569L16.4223 21.8772C15.648 22.6516 15.6482 23.9112 16.4223 24.6855C16.9866 25.2498 17.1407 26.0281 16.8345 26.7675C16.5282 27.5069 15.8688 27.9484 15.0707 27.9484C13.9759 27.9484 13.0851 28.8392 13.0851 29.9341V32.6495C13.0851 33.7442 13.9759 34.635 15.0707 34.635ZM15.2726 30.1309C16.8735 30.0569 18.2348 29.103 18.8554 27.6044C19.4762 26.1056 19.188 24.4688 18.1085 23.2844L19.7499 21.6428C20.9343 22.7225 22.5713 23.0105 24.0701 22.3898C25.5687 21.7691 26.5224 20.4078 26.5965 18.807H28.9177C28.9918 20.408 29.9455 21.7691 31.4441 22.3898C32.9427 23.0105 34.5798 22.7225 35.7643 21.6428L37.4057 23.2844C36.326 24.4688 36.038 26.1056 36.6588 27.6044C37.2796 29.1031 38.6407 30.0569 40.2416 30.1309V32.452C38.6407 32.5261 37.2796 33.4798 36.6588 34.9784C36.038 36.4772 36.326 38.1141 37.4057 39.2986L35.7643 40.9402C34.5799 39.8605 32.9429 39.5723 31.4443 40.1933C29.9455 40.8141 28.9918 42.1752 28.9177 43.7761H26.5966C26.5227 42.1736 25.5691 40.8117 24.0709 40.1911C22.5727 39.5705 20.9354 39.8592 19.7499 40.9402L18.1085 39.2986C19.1882 38.1142 19.4762 36.4772 18.8554 34.9784C18.2346 33.4798 16.8735 32.5261 15.2726 32.452V30.1309ZM27.7573 38.9094C31.9577 38.9094 35.3751 35.492 35.3751 31.2916C35.3751 27.0911 31.9577 23.6738 27.7573 23.6738C23.5568 23.6738 20.1395 27.0911 20.1395 31.2916C20.1395 35.492 23.5568 38.9094 27.7573 38.9094ZM27.7573 25.8613C30.7516 25.8613 33.1876 28.2972 33.1876 31.2916C33.1876 34.2859 30.7516 36.7219 27.7573 36.7219C24.7629 36.7219 22.327 34.2859 22.327 31.2916C22.327 28.2972 24.7629 25.8613 27.7573 25.8613ZM45.9343 44.8698C45.9343 44.2658 46.424 43.7761 47.028 43.7761H57.3521C57.9562 43.7761 58.4459 44.2658 58.4459 44.8698C58.4459 45.4739 57.9562 45.9636 57.3521 45.9636H47.028C46.424 45.9636 45.9343 45.4739 45.9343 44.8698ZM45.9343 31.2916C45.9343 30.6875 46.424 30.1978 47.028 30.1978H67.6763C68.2804 30.1978 68.7701 30.6875 68.7701 31.2916C68.7701 31.8956 68.2804 32.3853 67.6763 32.3853H47.028C46.424 32.3853 45.9343 31.8956 45.9343 31.2916ZM45.9343 38.0806C45.9343 37.4766 46.424 36.9869 47.028 36.9869H67.6763C68.2804 36.9869 68.7701 37.4766 68.7701 38.0806C68.7701 38.6847 68.2804 39.1744 67.6763 39.1744H47.028C46.424 39.1744 45.9343 38.6848 45.9343 38.0806Z" fill="#88FF2A"/>
</svg>
