<svg width="80" height="80" viewBox="0 0 80 80" fill="none" xmlns="http://www.w3.org/2000/svg">
<path d="M68.8231 25.0589C68.3525 15.2942 58.7054 8.706 49.6466 11.2942C47.176 6.00012 41.7642 2.4707 35.8819 2.4707C28.4701 2.4707 21.9995 8.00011 20.9407 15.2942C15.6466 16.0001 11.4113 20.1178 10.5878 25.4119C5.52895 27.0589 2.11719 31.6472 2.11719 37.0589C2.11719 43.7648 7.52895 49.2942 14.3525 49.2942H20.3525C21.0584 49.2942 21.529 48.8237 21.529 48.1178C21.529 47.4119 21.0584 46.9413 20.3525 46.9413H14.3525C8.94072 46.9413 4.47013 42.4707 4.47013 37.0589C4.47013 32.5884 7.52895 28.5884 11.8819 27.5295C12.3525 27.4119 12.7054 26.9413 12.8231 26.4707C13.2937 21.6472 17.2937 17.8825 22.1172 17.6472C22.7054 17.6472 23.176 17.1766 23.176 16.5884C23.7642 10.1178 29.2937 4.94129 35.8819 4.94129C41.176 4.94129 45.9995 8.35306 47.8819 13.2942C48.1172 13.8825 48.8231 14.2354 49.4113 14.0001C57.6466 10.9413 66.5878 17.1766 66.5878 26.0001V26.2354C66.5878 26.8236 67.0584 27.2942 67.529 27.4119C72.2348 28.2354 75.6466 32.2354 75.6466 37.0589C75.6466 42.4707 71.176 46.9413 65.7643 46.9413H59.7642C59.0584 46.9413 58.5878 47.4119 58.5878 48.1178C58.5878 48.8237 59.0584 49.2942 59.7642 49.2942H65.7643C72.4701 49.2942 77.9995 43.8825 77.9995 37.0589C77.8819 31.2942 74.1172 26.4707 68.8231 25.0589Z" fill="#88FF2A"/>
<path d="M30.1176 14.3535C30.9411 12.0005 33.1764 10.4711 35.647 10.4711C37.5294 10.4711 39.1764 11.2946 40.3529 12.824C40.7058 13.2946 41.5294 13.4123 41.9999 13.0593C42.4705 12.7064 42.5882 11.8829 42.2352 11.4123C40.7058 9.29463 38.2352 8.11816 35.647 8.11816C32.2352 8.11816 29.0588 10.3535 27.8823 13.5299C27.647 14.1182 27.9999 14.824 28.5882 15.0593C29.1764 15.2946 29.8823 14.9417 30.1176 14.3535Z" fill="#88FF2A"/>
<path d="M9.99943 36.4704C9.99943 35.7645 9.52884 35.2939 8.82296 35.2939C8.11707 35.2939 7.64648 35.7645 7.64648 36.4704C7.64648 40.5881 10.9406 43.8822 15.0582 43.8822C15.7641 43.8822 16.2347 43.4116 16.2347 42.7057C16.2347 41.9998 15.7641 41.5292 15.0582 41.5292C12.2347 41.5292 9.99943 39.1763 9.99943 36.4704Z" fill="#88FF2A"/>
<path d="M23.882 26.471V52.8239H13.9996C11.4114 52.8239 9.29372 54.9416 9.29372 57.5298V62.471C7.64666 62.9416 6.35254 64.5886 6.35254 66.3533C6.35254 68.5886 8.23489 70.471 10.4702 70.471C12.7055 70.471 14.5878 68.5886 14.5878 66.3533C14.5878 64.471 13.2937 62.9416 11.6467 62.471V57.5298C11.6467 56.2357 12.7055 55.1769 13.9996 55.1769H23.882V56.9416C23.882 60.9416 30.8231 63.1769 38.2349 63.4122V68.3533C36.2349 68.8239 34.7055 70.7063 34.7055 72.8239C34.7055 75.4122 36.8231 77.5298 39.4114 77.5298C41.9996 77.5298 44.1172 75.4122 44.1172 72.8239C44.1172 70.5886 42.5878 68.8239 40.5878 68.2357V63.2945C48.4702 63.1769 56.2349 60.9416 56.2349 56.7063V54.9416H66.1172C67.4114 54.9416 68.4702 56.0004 68.4702 57.2945V62.2357C66.8231 62.7063 65.529 64.3533 65.529 66.118C65.529 68.3533 67.4114 70.2357 69.6467 70.2357C71.882 70.2357 73.7643 68.3533 73.7643 66.118C73.7643 64.2357 72.4702 62.7063 70.8231 62.2357V57.2945C70.8231 54.7063 68.7055 52.5886 66.1172 52.5886H56.2349C56.2349 49.1769 56.2349 29.4122 56.2349 26.2357C56.2349 21.8828 48.1172 19.6475 40.1172 19.6475C32.1172 19.6475 23.882 22.118 23.882 26.471ZM12.1172 66.3533C12.1172 67.2945 11.2937 68.118 10.3525 68.118C9.41136 68.118 8.58783 67.2945 8.58783 66.3533C8.58783 65.4122 9.41136 64.5886 10.3525 64.5886C11.4114 64.5886 12.1172 65.4122 12.1172 66.3533ZM71.2937 66.3533C71.2937 67.2945 70.4702 68.118 69.529 68.118C68.5878 68.118 67.7643 67.2945 67.7643 66.3533C67.7643 65.4122 68.5878 64.5886 69.529 64.5886C70.5878 64.5886 71.2937 65.4122 71.2937 66.3533ZM53.7643 47.0592C53.7643 48.8239 48.3525 51.2945 39.9996 51.2945C31.529 51.2945 26.2349 48.8239 26.2349 47.0592V39.6475C29.1761 41.6475 34.7055 42.5886 39.9996 42.5886C45.4114 42.5886 50.8231 41.5298 53.7643 39.6475V47.0592ZM53.7643 36.2357C53.7643 38.0004 48.3525 40.471 39.9996 40.471C31.529 40.471 26.2349 38.0004 26.2349 36.2357V30.0004C29.1761 32.0004 34.5878 32.9416 39.9996 32.9416C45.4114 32.9416 50.8231 31.8828 53.7643 30.0004V36.2357ZM41.7643 72.8239C41.7643 74.118 40.7055 75.1769 39.4114 75.1769C38.1172 75.1769 37.0584 74.118 37.0584 72.8239C37.0584 71.5298 38.1172 70.471 39.4114 70.471C40.7055 70.471 41.7643 71.5298 41.7643 72.8239ZM53.7643 56.8239C53.7643 58.5886 48.3525 61.0592 39.9996 61.0592C31.529 61.0592 26.2349 58.5886 26.2349 56.8239V50.5886C29.1761 52.5886 34.7055 53.5298 39.9996 53.5298C45.4114 53.5298 50.8231 52.471 53.7643 50.5886V56.8239ZM39.9996 22.2357C48.4702 22.2357 53.7643 24.7063 53.7643 26.471C53.7643 28.2357 48.3525 30.7063 39.9996 30.7063C31.529 30.7063 26.2349 28.2357 26.2349 26.471C26.2349 24.7063 31.529 22.2357 39.9996 22.2357Z" fill="#88FF2A"/>
<path d="M32.47 34.7061C31.5289 34.4709 30.7053 34.1179 29.9995 33.765C29.4112 33.5297 28.7053 33.765 28.47 34.3532C28.2348 34.9414 28.47 35.6473 29.0583 35.8826C29.8818 36.2356 30.823 36.5885 31.8818 36.9414C32.47 37.0591 33.1759 36.7061 33.2936 36.1179C33.5289 35.5297 33.1759 34.9414 32.47 34.7061Z" fill="#88FF2A"/>
<path d="M32.47 44.9415C31.5289 44.7062 30.7053 44.3533 29.9995 44.0003C29.4112 43.765 28.7053 44.0003 28.47 44.5886C28.2348 45.1768 28.47 45.8827 29.0583 46.118C29.8818 46.4709 30.823 46.8238 31.8818 47.1768C32.47 47.2944 33.1759 46.9415 33.2936 46.3533C33.5289 45.765 33.1759 45.0591 32.47 44.9415Z" fill="#88FF2A"/>
<path d="M32.47 55.0587C31.5289 54.8234 30.7053 54.4705 29.9995 54.1175C29.4112 53.8822 28.7053 54.1175 28.47 54.7057C28.2348 55.294 28.47 55.9999 29.0583 56.2352C29.8818 56.5881 30.823 56.941 31.8818 57.294C32.47 57.4116 33.1759 57.0587 33.2936 56.4705C33.5289 55.8822 33.1759 55.294 32.47 55.0587Z" fill="#88FF2A"/>
</svg>
