<svg width="28" height="35" viewBox="0 0 28 35" fill="none" xmlns="http://www.w3.org/2000/svg">
<g clip-path="url(#clip0_2003_3986)">
<path fill-rule="evenodd" clip-rule="evenodd" d="M10.4453 27.4134C8.57797 27.4134 7.05038 25.8858 7.05038 24.0192C7.05038 22.1526 8.57797 20.6248 10.4453 20.6248H17.235C19.1006 20.6248 20.6279 19.0972 20.6279 17.2305C20.6279 15.3639 19.1008 13.8357 17.235 13.8357H10.4453C8.57797 13.8357 7.05038 12.3085 7.05038 10.4419C7.05038 8.57526 8.57797 7.047 10.4453 7.047H24.0226C25.8899 7.047 27.4175 5.51986 27.4175 3.65211C27.4175 1.78436 25.8899 0.258789 24.0226 0.258789H3.65661C1.78931 0.258789 0.261719 1.78638 0.261719 3.65256V10.4421C0.261719 12.3087 1.78931 13.8359 3.65661 13.8359C5.52391 13.8359 7.05038 15.3635 7.05038 17.2308C7.05038 19.0981 5.52324 20.625 3.65661 20.625C1.78998 20.625 0.261719 22.1521 0.261719 24.0194V30.8081C0.261719 32.6756 1.78931 34.203 3.65661 34.203H24.0226C25.8899 34.203 27.4175 32.6758 27.4175 30.8081C27.4175 28.9403 25.8899 27.4136 24.0226 27.4136H10.4453V27.4134Z" fill="#88FF2A"/>
</g>
<defs>
<clipPath id="clip0_2003_3986">
<rect width="27.1558" height="33.944" fill="white" transform="translate(0.261719 0.258789)"/>
</clipPath>
</defs>
</svg>
